<svg width="32" height="32" viewBox="0 0 32 32" fill="none" xmlns="http://www.w3.org/2000/svg">
  <!-- Koyu arka plan -->
  <rect width="32" height="32" rx="8" fill="#0f172a"/>
  
  <!-- Duvar deseni (basitleştirilmiş) -->
  <rect x="2" y="6" width="6" height="3" rx="0.5" fill="#1e293b" opacity="0.5"/>
  <rect x="10" y="6" width="6" height="3" rx="0.5" fill="#1e293b" opacity="0.5"/>
  <rect x="18" y="6" width="6" height="3" rx="0.5" fill="#1e293b" opacity="0.5"/>
  <rect x="26" y="6" width="4" height="3" rx="0.5" fill="#1e293b" opacity="0.5"/>
  
  <rect x="2" y="10" width="4" height="3" rx="0.5" fill="#1e293b" opacity="0.5"/>
  <rect x="8" y="10" width="6" height="3" rx="0.5" fill="#1e293b" opacity="0.5"/>
  <rect x="16" y="10" width="6" height="3" rx="0.5" fill="#1e293b" opacity="0.5"/>
  <rect x="24" y="10" width="6" height="3" rx="0.5" fill="#1e293b" opacity="0.5"/>
  
  <!-- Anonim maske (merkezde, öne çıkan) -->
  <path d="M16 10 C13.8 10 12 11.5 12 13.5 L12 15.5 C12 16.8 13.2 18 14.5 18 L17.5 18 C18.8 18 20 16.8 20 15.5 L20 13.5 C20 11.5 18.2 10 16 10 Z" fill="#6366f1"/>
  <path d="M16 10 C13.8 10 12 11.5 12 13.5 L12 15.5 C12 16.8 13.2 18 14.5 18 L17.5 18 C18.8 18 20 16.8 20 15.5 L20 13.5 C20 11.5 18.2 10 16 10 Z" stroke="#818cf8" stroke-width="0.5"/>
  
  <!-- Gözler -->
  <circle cx="14.5" cy="14" r="1.2" fill="#ffffff"/>
  <circle cx="17.5" cy="14" r="1.2" fill="#ffffff"/>
  
  <!-- Alt duvar tuğlaları -->
  <rect x="2" y="14" width="6" height="3" rx="0.5" fill="#1e293b" opacity="0.5"/>
  <rect x="10" y="14" width="6" height="3" rx="0.5" fill="#1e293b" opacity="0.5"/>
  <rect x="18" y="14" width="6" height="3" rx="0.5" fill="#1e293b" opacity="0.5"/>
  <rect x="26" y="14" width="4" height="3" rx="0.5" fill="#1e293b" opacity="0.5"/>
  
  <rect x="2" y="18" width="4" height="3" rx="0.5" fill="#1e293b" opacity="0.5"/>
  <rect x="8" y="18" width="6" height="3" rx="0.5" fill="#1e293b" opacity="0.5"/>
  <rect x="16" y="18" width="6" height="3" rx="0.5" fill="#1e293b" opacity="0.5"/>
  <rect x="24" y="18" width="6" height="3" rx="0.5" fill="#1e293b" opacity="0.5"/>
  
  <rect x="2" y="22" width="6" height="3" rx="0.5" fill="#1e293b" opacity="0.5"/>
  <rect x="10" y="22" width="6" height="3" rx="0.5" fill="#1e293b" opacity="0.5"/>
  <rect x="18" y="22" width="6" height="3" rx="0.5" fill="#1e293b" opacity="0.5"/>
  <rect x="26" y="22" width="4" height="3" rx="0.5" fill="#1e293b" opacity="0.5"/>
</svg>
